<?xml version="1.0" encoding="utf-8"?>
<!-- Generator: Adobe Illustrator 28.2.0, SVG Export Plug-In . SVG Version: 6.00 Build 0)  -->
<svg version="1.1" id="Layer_1" xmlns="http://www.w3.org/2000/svg" xmlns:xlink="http://www.w3.org/1999/xlink" x="0px" y="0px"
	 viewBox="0 0 595.28 475.91" style="enable-background:new 0 0 595.28 475.91;" xml:space="preserve">
<style type="text/css">
	.st0{fill:url(#SVGID_1_);}
	.st1{fill:url(#SVGID_00000060714835740938852910000018055297120384662712_);}
	.st2{fill:url(#SVGID_00000030487821672809970650000014018487467800668336_);}
	.st3{fill:url(#SVGID_00000088125433005734330100000010399362800140413112_);}
</style>
<linearGradient id="SVGID_1_" gradientUnits="userSpaceOnUse" x1="228.7318" y1="79.3091" x2="491.323" y2="264.4359">
	<stop  offset="0.2033" style="stop-color:#939598"/>
	<stop  offset="0.3172" style="stop-color:#D1D3D4"/>
	<stop  offset="0.3241" style="stop-color:#C8D0CD"/>
	<stop  offset="0.3638" style="stop-color:#A0C6B3"/>
	<stop  offset="0.4" style="stop-color:#79BE9C"/>
	<stop  offset="0.4314" style="stop-color:#55B88C"/>
	<stop  offset="0.4568" style="stop-color:#32B683"/>
	<stop  offset="0.473" style="stop-color:#1BB680"/>
</linearGradient>
<path class="st0" d="M516.9,86.83l48.63,88.41H383.4l136.15,234.29h-99.9L279.96,175.24c-2.02-3.53-11.34-20.68-5.83-42.28
	c4.95-19.39,18.62-29.7,22.36-32.33c8.29-5.84,17.16-8.26,21.16-9.38c6.28-1.76,11.51-2.38,18-3.12c10.71-1.22,18.95-1.29,21.24-1.3
	C370.91,86.76,432.53,86.66,516.9,86.83z"/>
<linearGradient id="SVGID_00000103226217582051623080000007576328713475944852_" gradientUnits="userSpaceOnUse" x1="217.01" y1="91.2084" x2="61.8498" y2="184.0393">
	<stop  offset="0.1062" style="stop-color:#939598"/>
	<stop  offset="0.4692" style="stop-color:#FFFFFF"/>
	<stop  offset="0.5667" style="stop-color:#BFC1C3"/>
	<stop  offset="0.6642" style="stop-color:#8C8E91"/>
	<stop  offset="0.7519" style="stop-color:#666769"/>
	<stop  offset="0.8281" style="stop-color:#464547"/>
	<stop  offset="0.8896" style="stop-color:#1D1D1E"/>
	<stop  offset="0.9289" style="stop-color:#000000"/>
</linearGradient>
<path style="fill:url(#SVGID_00000103226217582051623080000007576328713475944852_);" d="M29.75,86.83l53.93,88.41h187.43
	c-14.67-24.45-29.34-48.89-44-73.34c-1.67-2.57-5.07-7.07-10.95-10.54c-7.85-4.63-15.45-4.68-18.57-4.53
	C141.65,86.83,85.7,86.83,29.75,86.83z"/>
<linearGradient id="SVGID_00000066515526542520452160000012681574901388765363_" gradientUnits="userSpaceOnUse" x1="565.5208" y1="175.2448" x2="565.5208" y2="175.2448">
	<stop  offset="0.2033" style="stop-color:#939598"/>
	<stop  offset="0.3172" style="stop-color:#D1D3D4"/>
	<stop  offset="0.334" style="stop-color:#BCC6C0"/>
	<stop  offset="0.3711" style="stop-color:#91B39E"/>
	<stop  offset="0.4048" style="stop-color:#6BA585"/>
	<stop  offset="0.4341" style="stop-color:#489D74"/>
	<stop  offset="0.4578" style="stop-color:#269868"/>
	<stop  offset="0.473" style="stop-color:#0F9664"/>
</linearGradient>
<path style="fill:url(#SVGID_00000066515526542520452160000012681574901388765363_);" d="M565.52,175.24"/>
<linearGradient id="SVGID_00000034798944028846293300000008941523065941396650_" gradientUnits="userSpaceOnUse" x1="516.8952" y1="86.8346" x2="516.8952" y2="86.8346">
	<stop  offset="0.2033" style="stop-color:#939598"/>
	<stop  offset="0.3172" style="stop-color:#D1D3D4"/>
	<stop  offset="0.334" style="stop-color:#BCC6C0"/>
	<stop  offset="0.3711" style="stop-color:#91B39E"/>
	<stop  offset="0.4048" style="stop-color:#6BA585"/>
	<stop  offset="0.4341" style="stop-color:#489D74"/>
	<stop  offset="0.4578" style="stop-color:#269868"/>
	<stop  offset="0.473" style="stop-color:#0F9664"/>
</linearGradient>
<path style="fill:url(#SVGID_00000034798944028846293300000008941523065941396650_);" d="M516.9,86.83"/>
</svg>
