<?xml version="1.0" encoding="utf-8"?>
<!-- Generator: Adobe Illustrator 28.2.0, SVG Export Plug-In . SVG Version: 6.00 Build 0)  -->
<svg version="1.1" id="Layer_1" xmlns="http://www.w3.org/2000/svg" xmlns:xlink="http://www.w3.org/1999/xlink" x="0px" y="0px"
	 viewBox="0 0 2643.96 475.91" style="enable-background:new 0 0 2643.96 475.91;" xml:space="preserve">
<style type="text/css">
	.st0{fill:url(#SVGID_1_);}
	.st1{fill:url(#SVGID_00000035496301114325697260000017357411490124127133_);}
	.st2{fill:url(#SVGID_00000173136508167073772870000003842672596280018588_);}
	.st3{fill:url(#SVGID_00000126292892237259046740000004445223468143280547_);}
	.st4{fill:url(#SVGID_00000057130942527687647390000007453020051807278521_);}
	.st5{fill:url(#SVGID_00000092420201329223846950000013391108393982951062_);}
	.st6{fill:url(#SVGID_00000030481802645780137920000017266218086416311986_);}
	.st7{fill:url(#SVGID_00000011753058833376452530000014427851853328083356_);}
	.st8{fill:url(#SVGID_00000172399251683570772100000004840086886475849640_);}
	.st9{fill:url(#SVGID_00000155860559259265574720000006677183400246497468_);}
	.st10{fill:url(#SVGID_00000178911885796814838800000002575746887447648641_);}
	.st11{fill:url(#SVGID_00000016790994857770543790000013605595587121967498_);}
	.st12{fill:url(#SVGID_00000121960793919487723090000006078408398915193514_);}
	.st13{fill:url(#SVGID_00000023985531435870895700000004212554710418972090_);}
	.st14{fill:url(#SVGID_00000160909265976611282200000004295196384897219768_);}
	.st15{fill:url(#SVGID_00000106139179317461565130000013182477988598271138_);}
	.st16{fill:url(#SVGID_00000140722810295679309410000018310748479507255465_);}
</style>
<g>
	<linearGradient id="SVGID_1_" gradientUnits="userSpaceOnUse" x1="426.8286" y1="79.3091" x2="689.4199" y2="264.4359">
		<stop  offset="0.2033" style="stop-color:#939598"/>
		<stop  offset="0.3172" style="stop-color:#D1D3D4"/>
		<stop  offset="0.3241" style="stop-color:#C8D0CD"/>
		<stop  offset="0.3638" style="stop-color:#A0C6B3"/>
		<stop  offset="0.4" style="stop-color:#79BE9C"/>
		<stop  offset="0.4314" style="stop-color:#55B88C"/>
		<stop  offset="0.4568" style="stop-color:#32B683"/>
		<stop  offset="0.473" style="stop-color:#1BB680"/>
	</linearGradient>
	<path class="st0" d="M714.99,86.83l48.63,88.41H581.49l136.15,234.29h-99.9L478.05,175.24c-2.02-3.53-11.34-20.68-5.83-42.28
		c4.95-19.39,18.62-29.7,22.36-32.33c8.29-5.84,17.16-8.26,21.16-9.38c6.28-1.76,11.51-2.38,18-3.12
		c10.71-1.22,18.95-1.29,21.24-1.3C569.01,86.76,630.62,86.66,714.99,86.83z"/>
	
		<linearGradient id="SVGID_00000078742571112194149000000008682729060713625485_" gradientUnits="userSpaceOnUse" x1="415.1068" y1="91.2084" x2="259.9466" y2="184.0393">
		<stop  offset="0.1062" style="stop-color:#939598"/>
		<stop  offset="0.4692" style="stop-color:#FFFFFF"/>
		<stop  offset="0.5667" style="stop-color:#BFC1C3"/>
		<stop  offset="0.6642" style="stop-color:#8C8E91"/>
		<stop  offset="0.7519" style="stop-color:#666769"/>
		<stop  offset="0.8281" style="stop-color:#464547"/>
		<stop  offset="0.8896" style="stop-color:#1D1D1E"/>
		<stop  offset="0.9289" style="stop-color:#000000"/>
	</linearGradient>
	<path style="fill:url(#SVGID_00000078742571112194149000000008682729060713625485_);" d="M227.85,86.83l53.93,88.41h187.43
		c-14.67-24.45-29.34-48.89-44-73.34c-1.67-2.57-5.07-7.07-10.95-10.54c-7.85-4.63-15.45-4.68-18.57-4.53
		C339.74,86.83,283.8,86.83,227.85,86.83z"/>
</g>
<linearGradient id="SVGID_00000114784144579033219170000007342763445424886680_" gradientUnits="userSpaceOnUse" x1="808.1723" y1="175.2448" x2="808.1723" y2="175.2448">
	<stop  offset="0.2033" style="stop-color:#939598"/>
	<stop  offset="0.3172" style="stop-color:#D1D3D4"/>
	<stop  offset="0.334" style="stop-color:#BCC6C0"/>
	<stop  offset="0.3711" style="stop-color:#91B39E"/>
	<stop  offset="0.4048" style="stop-color:#6BA585"/>
	<stop  offset="0.4341" style="stop-color:#489D74"/>
	<stop  offset="0.4578" style="stop-color:#269868"/>
	<stop  offset="0.473" style="stop-color:#0F9664"/>
</linearGradient>
<path style="fill:url(#SVGID_00000114784144579033219170000007342763445424886680_);" d="M808.17,175.24"/>
<linearGradient id="SVGID_00000162352804290655174620000004452795165199099576_" gradientUnits="userSpaceOnUse" x1="759.5467" y1="86.8346" x2="759.5467" y2="86.8346">
	<stop  offset="0.2033" style="stop-color:#939598"/>
	<stop  offset="0.3172" style="stop-color:#D1D3D4"/>
	<stop  offset="0.334" style="stop-color:#BCC6C0"/>
	<stop  offset="0.3711" style="stop-color:#91B39E"/>
	<stop  offset="0.4048" style="stop-color:#6BA585"/>
	<stop  offset="0.4341" style="stop-color:#489D74"/>
	<stop  offset="0.4578" style="stop-color:#269868"/>
	<stop  offset="0.473" style="stop-color:#0F9664"/>
</linearGradient>
<path style="fill:url(#SVGID_00000162352804290655174620000004452795165199099576_);" d="M759.55,86.83"/>
<g>
	<g>
		
			<linearGradient id="SVGID_00000150071615267969885430000011503239461373126546_" gradientUnits="userSpaceOnUse" x1="2031.6938" y1="18.1388" x2="1141.2567" y2="785.1857">
			<stop  offset="0.4348" style="stop-color:#B3B4B4"/>
			<stop  offset="0.6569" style="stop-color:#1BB680"/>
		</linearGradient>
		<path style="fill:url(#SVGID_00000150071615267969885430000011503239461373126546_);" d="M967.67,410.52
			c-11.84,0-20.87-2.62-27.1-7.85c-6.23-5.23-10.5-12.71-12.8-22.43c-2.31-9.72-3.46-21.31-3.46-34.76v-108.4h-19.06v-34.01h19.06
			v-50.46h37.75v50.46h25.98v34.01h-25.98V350.9c0,7.98,1.18,13.86,3.55,17.66c2.37,3.8,6.23,5.7,11.59,5.7
			c2.37,0,4.45-0.19,6.26-0.56c1.8-0.37,3.27-0.81,4.39-1.31v34.58c-2.49,1-5.2,1.84-8.13,2.52
			C976.79,410.18,972.77,410.52,967.67,410.52z"/>
		
			<linearGradient id="SVGID_00000080889004349810585890000014946626540552174742_" gradientUnits="userSpaceOnUse" x1="2031.6938" y1="18.1388" x2="1141.2567" y2="785.1857">
			<stop  offset="0.4348" style="stop-color:#B3B4B4"/>
			<stop  offset="0.6569" style="stop-color:#1BB680"/>
		</linearGradient>
		<path style="fill:url(#SVGID_00000080889004349810585890000014946626540552174742_);" d="M999.25,407.53V203.07H1037v22.8
			c0.75-4.98,3.05-9.41,6.92-13.27c3.86-3.86,8.57-6.92,14.11-9.16c5.54-2.24,11.12-3.36,16.73-3.36v41.86
			c-1.62-0.62-3.33-1.03-5.14-1.21c-1.81-0.19-3.58-0.28-5.33-0.28c-8.22,0-14.83,2.24-19.81,6.73c-4.98,4.49-7.48,10.59-7.48,18.32
			v142.04H999.25z"/>
		
			<linearGradient id="SVGID_00000090266401848970655790000003056605594751494793_" gradientUnits="userSpaceOnUse" x1="2031.6938" y1="18.1388" x2="1141.2567" y2="785.1857">
			<stop  offset="0.4348" style="stop-color:#B3B4B4"/>
			<stop  offset="0.6569" style="stop-color:#1BB680"/>
		</linearGradient>
		<path style="fill:url(#SVGID_00000090266401848970655790000003056605594751494793_);" d="M1117.18,410.52
			c-8.72,0-16.26-4.42-22.61-13.27c-6.35-8.84-9.53-22.36-9.53-40.56c0-17.57,3.77-31.71,11.31-42.42
			c7.54-10.71,18.84-20,33.92-27.85c4.73-2.49,8.72-4.73,11.96-6.73c3.24-1.99,5.23-3.86,5.98-5.61v-22.43
			c0-5.11-0.59-9.5-1.78-13.18c-1.19-3.67-4.08-5.51-8.69-5.51c-4.24,0-7.1,1.96-8.6,5.89c-1.5,3.92-2.24,8.82-2.24,14.67v9.72
			h-37.75v-8.6c0-11.21,2.21-20.9,6.63-29.06c4.42-8.16,10.47-14.45,18.13-18.88c7.66-4.42,16.35-6.63,26.07-6.63
			c9.34,0,17.44,2.15,24.3,6.45c6.85,4.3,12.18,10.22,15.98,17.75c3.8,7.54,5.7,16.17,5.7,25.88v121.85c0,9.1,0.25,16.17,0.75,21.21
			c0.5,5.05,1.12,9.81,1.87,14.3h-37c-1.62-1.99-2.59-4.92-2.9-8.78c-0.31-3.86-0.47-6.42-0.47-7.66h-2.62
			c-3.12,5.73-7.07,10.4-11.87,14.02C1128.92,408.71,1123.41,410.52,1117.18,410.52z M1132.5,373.52c4.36,0,8.07-1.5,11.12-4.49
			c3.05-2.99,4.58-6.23,4.58-9.72v-48.59c-9.1,3.86-15.73,9.69-19.9,17.47c-4.18,7.79-6.26,16.54-6.26,26.26
			c0,4.24,0.81,8.47,2.43,12.71C1126.08,371.4,1128.76,373.52,1132.5,373.52z"/>
		
			<linearGradient id="SVGID_00000088847372527522996800000003874754766469364352_" gradientUnits="userSpaceOnUse" x1="2031.6938" y1="18.1388" x2="1141.2567" y2="785.1857">
			<stop  offset="0.4348" style="stop-color:#B3B4B4"/>
			<stop  offset="0.6569" style="stop-color:#1BB680"/>
		</linearGradient>
		<path style="fill:url(#SVGID_00000088847372527522996800000003874754766469364352_);" d="M1234.54,410.52
			c-6.23,0-11.53-1.93-15.89-5.79c-4.36-3.86-7.66-8.88-9.91-15.04c-2.24-6.17-3.36-12.55-3.36-19.16V240.08
			c0-6.6,1.09-12.96,3.27-19.06c2.18-6.1,5.45-11.12,9.81-15.04c4.36-3.92,9.72-5.89,16.07-5.89c4.73,0,9.72,1.62,14.95,4.86
			c5.23,3.24,10.21,7.1,14.95,11.59V132.8h37.75v274.73h-37.75v-13.46c-4.99,4.36-9.91,8.19-14.76,11.49
			S1239.77,410.52,1234.54,410.52z M1252.48,375.01c2.87,0,5.58-1.18,8.13-3.55c2.55-2.37,3.83-5.29,3.83-8.78V247.93
			c0-2.99-1.28-5.79-3.83-8.41c-2.55-2.62-5.26-3.92-8.13-3.92c-2.74,0-4.98,1.15-6.73,3.46c-1.75,2.31-2.62,5.27-2.62,8.88v114.75
			c0,3.49,0.87,6.42,2.62,8.78C1247.5,373.83,1249.74,375.01,1252.48,375.01z"/>
		
			<linearGradient id="SVGID_00000013189464394065028100000001000586205488743101_" gradientUnits="userSpaceOnUse" x1="2031.6938" y1="18.1388" x2="1141.2567" y2="785.1857">
			<stop  offset="0.4348" style="stop-color:#B3B4B4"/>
			<stop  offset="0.6569" style="stop-color:#1BB680"/>
		</linearGradient>
		<path style="fill:url(#SVGID_00000013189464394065028100000001000586205488743101_);" d="M1373.59,410.52
			c-15.08,0-26.94-5.2-35.6-15.61c-8.66-10.4-12.99-23.14-12.99-38.22V253.91c0-15.95,4.3-28.9,12.9-38.87
			c8.6-9.97,20.62-14.95,36.07-14.95c10.09,0,18.78,2.31,26.07,6.92c7.29,4.61,12.86,10.87,16.73,18.78
			c3.86,7.91,5.79,16.91,5.79,27.01v59.43h-62.42v44.48c0,5.11,1.15,9.81,3.46,14.11c2.3,4.3,5.76,6.45,10.37,6.45
			c4.86,0,8.32-1.99,10.37-5.98c2.06-3.99,3.08-8.85,3.08-14.58v-22.43h35.14v23.55c0,15.83-4.27,28.57-12.8,38.22
			C1401.21,405.7,1389.16,410.52,1373.59,410.52z M1360.13,282.69h27.29v-28.78c0-5.61-0.97-10.5-2.9-14.67
			c-1.93-4.17-5.45-6.26-10.56-6.26c-4.74,0-8.22,2.15-10.47,6.45c-2.24,4.3-3.36,9.13-3.36,14.48V282.69z"/>
		
			<linearGradient id="SVGID_00000049911117683973205970000009380558071913454254_" gradientUnits="userSpaceOnUse" x1="2031.6938" y1="18.1388" x2="1141.2567" y2="785.1857">
			<stop  offset="0.4348" style="stop-color:#B3B4B4"/>
			<stop  offset="0.6569" style="stop-color:#1BB680"/>
		</linearGradient>
		<path style="fill:url(#SVGID_00000049911117683973205970000009380558071913454254_);" d="M1436.57,407.53l41.49-274.73h49.34
			l41.49,274.73h-39.25l-7.48-56.07h-38.87l-7.48,56.07H1436.57z M1488.9,308.85h27.66l-11.59-92.33l-1.12-14.58h-2.24l-1.12,14.58
			L1488.9,308.85z"/>
		
			<linearGradient id="SVGID_00000024680275877590871330000009640286839219898756_" gradientUnits="userSpaceOnUse" x1="2031.6938" y1="18.1388" x2="1141.2567" y2="785.1857">
			<stop  offset="0.4348" style="stop-color:#B3B4B4"/>
			<stop  offset="0.6569" style="stop-color:#1BB680"/>
		</linearGradient>
		<path style="fill:url(#SVGID_00000024680275877590871330000009640286839219898756_);" d="M1613.18,410.52
			c-6.23,0-11.46-1.99-15.7-5.98c-4.24-3.99-7.42-9.06-9.53-15.23c-2.12-6.17-3.18-12.43-3.18-18.78V203.07h37.75v159.98
			c0,3.86,0.72,6.63,2.15,8.32c1.43,1.68,3.71,2.52,6.82,2.52c2.74,0,5.08-0.96,7.01-2.9c1.93-1.93,3.71-4.21,5.33-6.82v-161.1
			h37.75v204.46h-37.75v-17.19c-4.49,4.24-9.53,8.66-15.14,13.27C1623.08,408.22,1617.91,410.52,1613.18,410.52z"/>
		
			<linearGradient id="SVGID_00000168094151298302452990000011459724207779274431_" gradientUnits="userSpaceOnUse" x1="2031.6938" y1="18.1388" x2="1141.2567" y2="785.1857">
			<stop  offset="0.4348" style="stop-color:#B3B4B4"/>
			<stop  offset="0.6569" style="stop-color:#1BB680"/>
		</linearGradient>
		<path style="fill:url(#SVGID_00000168094151298302452990000011459724207779274431_);" d="M1727.55,410.52
			c-6.23,0-11.53-1.93-15.89-5.79c-4.36-3.86-7.66-8.88-9.91-15.04c-2.24-6.17-3.36-12.55-3.36-19.16V240.08
			c0-6.6,1.09-12.96,3.27-19.06c2.18-6.1,5.45-11.12,9.81-15.04c4.36-3.92,9.72-5.89,16.07-5.89c4.73,0,9.72,1.62,14.95,4.86
			c5.23,3.24,10.21,7.1,14.95,11.59V132.8h37.75v274.73h-37.75v-13.46c-4.99,4.36-9.91,8.19-14.76,11.49
			S1732.79,410.52,1727.55,410.52z M1745.49,375.01c2.87,0,5.58-1.18,8.13-3.55c2.55-2.37,3.83-5.29,3.83-8.78V247.93
			c0-2.99-1.28-5.79-3.83-8.41c-2.55-2.62-5.26-3.92-8.13-3.92c-2.74,0-4.98,1.15-6.73,3.46c-1.75,2.31-2.62,5.27-2.62,8.88v114.75
			c0,3.49,0.87,6.42,2.62,8.78C1740.51,373.83,1742.75,375.01,1745.49,375.01z"/>
		
			<linearGradient id="SVGID_00000096741868142037252730000013189201313333431202_" gradientUnits="userSpaceOnUse" x1="2031.6938" y1="18.1388" x2="1141.2567" y2="785.1857">
			<stop  offset="0.4348" style="stop-color:#B3B4B4"/>
			<stop  offset="0.6569" style="stop-color:#1BB680"/>
		</linearGradient>
		<path style="fill:url(#SVGID_00000096741868142037252730000013189201313333431202_);" d="M1821.74,170.55V132.8h37.75v37.75
			H1821.74z M1821.74,407.53V203.07h37.75v204.46H1821.74z"/>
		
			<linearGradient id="SVGID_00000064343564472444223430000000227541161652176810_" gradientUnits="userSpaceOnUse" x1="2031.6938" y1="18.1388" x2="1141.2567" y2="785.1857">
			<stop  offset="0.4348" style="stop-color:#B3B4B4"/>
			<stop  offset="0.6569" style="stop-color:#1BB680"/>
		</linearGradient>
		<path style="fill:url(#SVGID_00000064343564472444223430000000227541161652176810_);" d="M1935,410.52
			c-11.84,0-20.87-2.62-27.1-7.85c-6.23-5.23-10.5-12.71-12.8-22.43c-2.31-9.72-3.46-21.31-3.46-34.76v-108.4h-19.06v-34.01h19.06
			v-50.46h37.75v50.46h25.98v34.01h-25.98V350.9c0,7.98,1.18,13.86,3.55,17.66c2.37,3.8,6.23,5.7,11.59,5.7
			c2.37,0,4.45-0.19,6.26-0.56c1.8-0.37,3.27-0.81,4.39-1.31v34.58c-2.49,1-5.2,1.84-8.13,2.52
			C1944.12,410.18,1940.11,410.52,1935,410.52z"/>
		
			<linearGradient id="SVGID_00000109028681951058661410000017953213517406517387_" gradientUnits="userSpaceOnUse" x1="2031.6938" y1="18.1388" x2="1141.2567" y2="785.1857">
			<stop  offset="0.4348" style="stop-color:#B3B4B4"/>
			<stop  offset="0.6569" style="stop-color:#1BB680"/>
		</linearGradient>
		<path style="fill:url(#SVGID_00000109028681951058661410000017953213517406517387_);" d="M2029.75,407.53V132.8h40.37
			c15.33,0,28.13,3.36,38.41,10.09s17.97,16.26,23.08,28.59c5.11,12.33,7.66,26.85,7.66,43.55c0,16.7-2.68,31.09-8.04,43.17
			c-5.36,12.09-13.18,21.52-23.46,28.31c-10.28,6.79-22.83,10.5-37.66,11.12v109.89H2029.75z M2070.12,256.52
			c7.1,0,12.71-1.4,16.82-4.21s7.07-7.26,8.88-13.36c1.8-6.1,2.71-13.95,2.71-23.55c0-9.72-0.91-17.63-2.71-23.74
			c-1.81-6.1-4.8-10.59-8.97-13.46c-4.18-2.86-9.75-4.3-16.73-4.3V256.52z"/>
		
			<linearGradient id="SVGID_00000019651270063640129950000005011996221269619893_" gradientUnits="userSpaceOnUse" x1="2031.6938" y1="18.1388" x2="1141.2567" y2="785.1857">
			<stop  offset="0.4348" style="stop-color:#B3B4B4"/>
			<stop  offset="0.6569" style="stop-color:#1BB680"/>
		</linearGradient>
		<path style="fill:url(#SVGID_00000019651270063640129950000005011996221269619893_);" d="M2155.71,407.53V203.07h37.75v22.8
			c0.75-4.98,3.05-9.41,6.92-13.27c3.86-3.86,8.57-6.92,14.11-9.16c5.54-2.24,11.12-3.36,16.73-3.36v41.86
			c-1.62-0.62-3.33-1.03-5.14-1.21c-1.81-0.19-3.58-0.28-5.33-0.28c-8.22,0-14.83,2.24-19.81,6.73c-4.98,4.49-7.48,10.59-7.48,18.32
			v142.04H2155.71z"/>
		
			<linearGradient id="SVGID_00000079453839851599619980000013405144529876780175_" gradientUnits="userSpaceOnUse" x1="2031.6938" y1="18.1388" x2="1141.2567" y2="785.1857">
			<stop  offset="0.4348" style="stop-color:#B3B4B4"/>
			<stop  offset="0.6569" style="stop-color:#1BB680"/>
		</linearGradient>
		<path style="fill:url(#SVGID_00000079453839851599619980000013405144529876780175_);" d="M2290.83,410.15
			c-15.08,0-26.91-5.08-35.51-15.23c-8.6-10.15-12.9-23.02-12.9-38.59V253.91c0-15.57,4.3-28.44,12.9-38.59
			c8.6-10.15,20.43-15.23,35.51-15.23c14.95,0,26.75,5.08,35.42,15.23c8.66,10.16,12.99,23.02,12.99,38.59v102.42
			c0,15.58-4.33,28.44-12.99,38.59C2317.59,405.07,2305.78,410.15,2290.83,410.15z M2290.83,377.26c4.86,0,8.22-1.96,10.09-5.89
			c1.87-3.92,2.8-8.94,2.8-15.04V253.91c0-6.23-0.93-11.27-2.8-15.14c-1.87-3.86-5.23-5.79-10.09-5.79s-8.22,1.93-10.09,5.79
			c-1.87,3.86-2.8,8.91-2.8,15.14v102.42c0,6.23,0.93,11.28,2.8,15.14C2282.61,375.33,2285.97,377.26,2290.83,377.26z"/>
	</g>
</g>
</svg>
